G04*
G04 #@! TF.GenerationSoftware,Altium Limited,Altium Designer,18.0.7 (293)*
G04*
G04 Layer_Physical_Order=3*
G04 Layer_Color=16440176*
%FSLAX25Y25*%
%MOIN*%
G70*
G01*
G75*
%ADD27C,0.01575*%
%ADD28C,0.00787*%
G36*
X154400Y134200D02*
X109254D01*
X108901Y134554D01*
X109009Y163800D01*
X154400D01*
Y134200D01*
D02*
G37*
G36*
X154000Y189800D02*
X154000Y164600D01*
X109000D01*
Y189499D01*
X109460Y189997D01*
X154000Y189800D01*
D02*
G37*
%LPC*%
G36*
X119500Y155311D02*
X119037Y155219D01*
X118644Y154956D01*
X118382Y154563D01*
X118289Y154100D01*
X118382Y153637D01*
X118644Y153244D01*
X119037Y152981D01*
X119500Y152889D01*
X119963Y152981D01*
X120356Y153244D01*
X120618Y153637D01*
X120711Y154100D01*
X120618Y154563D01*
X120356Y154956D01*
X119963Y155219D01*
X119500Y155311D01*
D02*
G37*
G36*
X131000Y143009D02*
X130690Y142948D01*
X130428Y142772D01*
X130252Y142510D01*
X130191Y142200D01*
X130252Y141890D01*
X130428Y141628D01*
X130690Y141452D01*
X131000Y141391D01*
X131310Y141452D01*
X131572Y141628D01*
X131748Y141890D01*
X131809Y142200D01*
X131748Y142510D01*
X131572Y142772D01*
X131310Y142948D01*
X131000Y143009D01*
D02*
G37*
G36*
X144731Y142778D02*
X144422Y142716D01*
X144159Y142541D01*
X143984Y142278D01*
X143922Y141969D01*
X143984Y141659D01*
X144159Y141396D01*
X144422Y141221D01*
X144731Y141159D01*
X145041Y141221D01*
X145304Y141396D01*
X145479Y141659D01*
X145541Y141969D01*
X145479Y142278D01*
X145304Y142541D01*
X145041Y142716D01*
X144731Y142778D01*
D02*
G37*
G36*
X134800Y142709D02*
X134490Y142648D01*
X134228Y142472D01*
X134052Y142210D01*
X133991Y141900D01*
X134052Y141590D01*
X134228Y141328D01*
X134490Y141152D01*
X134800Y141091D01*
X135110Y141152D01*
X135372Y141328D01*
X135548Y141590D01*
X135609Y141900D01*
X135548Y142210D01*
X135372Y142472D01*
X135110Y142648D01*
X134800Y142709D01*
D02*
G37*
G36*
X140700Y140509D02*
X140390Y140448D01*
X140128Y140272D01*
X139952Y140010D01*
X139891Y139700D01*
X139952Y139390D01*
X140128Y139128D01*
X140390Y138952D01*
X140700Y138891D01*
X141010Y138952D01*
X141272Y139128D01*
X141448Y139390D01*
X141509Y139700D01*
X141448Y140010D01*
X141272Y140272D01*
X141010Y140448D01*
X140700Y140509D01*
D02*
G37*
G36*
X123100D02*
X122790Y140448D01*
X122528Y140272D01*
X122352Y140010D01*
X122291Y139700D01*
X122352Y139390D01*
X122528Y139128D01*
X122790Y138952D01*
X123100Y138891D01*
X123410Y138952D01*
X123672Y139128D01*
X123848Y139390D01*
X123909Y139700D01*
X123848Y140010D01*
X123672Y140272D01*
X123410Y140448D01*
X123100Y140509D01*
D02*
G37*
G36*
X127500Y140409D02*
X127190Y140348D01*
X126928Y140172D01*
X126752Y139910D01*
X126691Y139600D01*
X126752Y139290D01*
X126928Y139028D01*
X127190Y138852D01*
X127500Y138791D01*
X127810Y138852D01*
X128072Y139028D01*
X128248Y139290D01*
X128309Y139600D01*
X128248Y139910D01*
X128072Y140172D01*
X127810Y140348D01*
X127500Y140409D01*
D02*
G37*
G36*
X125700Y138609D02*
X125390Y138548D01*
X125128Y138372D01*
X124952Y138110D01*
X124891Y137800D01*
X124952Y137490D01*
X125128Y137228D01*
X125390Y137052D01*
X125700Y136991D01*
X126010Y137052D01*
X126272Y137228D01*
X126448Y137490D01*
X126509Y137800D01*
X126448Y138110D01*
X126272Y138372D01*
X126010Y138548D01*
X125700Y138609D01*
D02*
G37*
G36*
X130200Y137609D02*
X129890Y137548D01*
X129628Y137372D01*
X129452Y137110D01*
X129391Y136800D01*
X129452Y136490D01*
X129628Y136228D01*
X129890Y136052D01*
X130200Y135991D01*
X130510Y136052D01*
X130772Y136228D01*
X130948Y136490D01*
X131009Y136800D01*
X130948Y137110D01*
X130772Y137372D01*
X130510Y137548D01*
X130200Y137609D01*
D02*
G37*
%LPD*%
D27*
X110000Y168700D02*
D03*
X152800Y168200D02*
D03*
X152400Y177500D02*
D03*
X110500Y175900D02*
D03*
X118900Y158700D02*
D03*
X110473Y150073D02*
D03*
X150600Y152900D02*
D03*
D28*
X138400Y141900D02*
D03*
M02*
