G04*
G04 #@! TF.GenerationSoftware,Altium Limited,Altium Designer,18.0.7 (293)*
G04*
G04 Layer_Color=65535*
%FSLAX25Y25*%
%MOIN*%
G70*
G01*
G75*
%ADD10C,0.00200*%
%ADD11C,0.00300*%
D10*
X151900Y179833D02*
X152567Y179167D01*
X151900D02*
X152567Y179833D01*
X151900Y179500D02*
X152567D01*
X152233Y179167D02*
Y179833D01*
D11*
X151000Y172700D02*
Y171867D01*
X151167Y171700D01*
X151500D01*
X151666Y171867D01*
Y172700D01*
X152000Y171700D02*
X152333D01*
X152166D01*
Y172700D01*
X152000Y172533D01*
X153200Y136100D02*
X152200D01*
Y136600D01*
X152367Y136767D01*
X152700D01*
X152867Y136600D01*
Y136100D01*
Y136433D02*
X153200Y136767D01*
X152367Y137100D02*
X152200Y137266D01*
Y137600D01*
X152367Y137766D01*
X152533D01*
X152700Y137600D01*
Y137433D01*
Y137600D01*
X152867Y137766D01*
X153033D01*
X153200Y137600D01*
Y137266D01*
X153033Y137100D01*
X115400Y140400D02*
Y141400D01*
X115900D01*
X116067Y141233D01*
Y140900D01*
X115900Y140733D01*
X115400D01*
X115733D02*
X116067Y140400D01*
X117066D02*
X116400D01*
X117066Y141067D01*
Y141233D01*
X116900Y141400D01*
X116566D01*
X116400Y141233D01*
X147567Y144766D02*
X147400Y144600D01*
Y144267D01*
X147567Y144100D01*
X148233D01*
X148400Y144267D01*
Y144600D01*
X148233Y144766D01*
X148400Y145766D02*
Y145100D01*
X147733Y145766D01*
X147567D01*
X147400Y145599D01*
Y145266D01*
X147567Y145100D01*
X151767Y165133D02*
X151600Y165300D01*
X151267D01*
X151100Y165133D01*
Y164467D01*
X151267Y164300D01*
X151600D01*
X151767Y164467D01*
X152100Y164300D02*
X152433D01*
X152266D01*
Y165300D01*
X152100Y165133D01*
M02*
