G04*
G04 #@! TF.GenerationSoftware,Altium Limited,Altium Designer,18.0.7 (293)*
G04*
G04 Layer_Physical_Order=4*
G04 Layer_Color=16711680*
%FSLAX25Y25*%
%MOIN*%
G70*
G01*
G75*
%ADD17R,0.03000X0.02700*%
%ADD24C,0.00500*%
%ADD25C,0.00400*%
%ADD26C,0.01000*%
%ADD27C,0.01575*%
%ADD28C,0.00787*%
%ADD29R,0.01500X0.03000*%
%ADD30R,0.01500X0.04000*%
D17*
X112000Y141700D02*
D03*
Y137500D02*
D03*
D24*
X121600Y154100D02*
X121700Y154200D01*
D25*
X119500Y154100D02*
X119600Y154000D01*
X124100Y142800D02*
X124700Y142200D01*
X131000D01*
X123800Y141100D02*
X134000D01*
X134800Y141900D01*
X134900Y139600D02*
X135900Y140600D01*
X127500Y139600D02*
X134900D01*
X136900Y140413D02*
Y141805D01*
X135094Y138606D02*
X136900Y140413D01*
X121500Y158900D02*
X121700Y158700D01*
X112000Y137500D02*
X112300Y137800D01*
X125700D01*
X121100Y141700D02*
X123100Y139700D01*
X112000Y141700D02*
X121100D01*
X137900Y142805D02*
Y147400D01*
X136900Y141805D02*
X137900Y142805D01*
X139394Y141494D02*
X139800Y141900D01*
X139394Y141488D02*
Y141494D01*
X138812Y140906D02*
X139394Y141488D01*
X138806Y140906D02*
X138812D01*
X135700Y137800D02*
X138806Y140906D01*
X139800Y141900D02*
Y147500D01*
X125700Y137800D02*
X135700D01*
X141800Y142500D02*
Y147500D01*
X136100Y136800D02*
X141800Y142500D01*
X130200Y136800D02*
X136100D01*
X140700Y139700D02*
X141057D01*
X143800Y142443D01*
X124100Y142800D02*
Y148900D01*
X124400Y149200D01*
X125400D01*
X126000Y148600D01*
X127600D01*
X128200Y149200D01*
Y149900D01*
X128500Y150200D01*
X129200D01*
X129800Y150800D01*
Y151600D01*
X129200Y152200D02*
X129800Y151600D01*
X123100Y139700D02*
X123500Y139300D01*
X125906D01*
X126600Y138606D01*
X135094D01*
X122100Y147100D02*
X122600Y147600D01*
Y150000D01*
X124500Y151900D01*
X126100D01*
X126700Y152500D01*
Y154200D01*
X122100Y142800D02*
Y147100D01*
Y142800D02*
X123800Y141100D01*
X129200Y152200D02*
Y154200D01*
X131700Y152000D02*
Y154200D01*
X130600Y150900D02*
X131700Y152000D01*
X131500Y154000D02*
X131700Y154200D01*
X130600Y149700D02*
Y150900D01*
Y149700D02*
X131300Y149000D01*
X132900D01*
X133500Y148400D01*
X135100D01*
X135900Y147600D01*
X138100Y154031D02*
X144731Y147400D01*
Y141969D02*
Y147400D01*
X137300Y153700D02*
X143800Y147200D01*
Y142443D02*
Y147200D01*
X126700Y160100D02*
X129800Y163200D01*
X135703D02*
X138100Y160803D01*
X129800Y163200D02*
X135703D01*
X138100Y154031D02*
Y160803D01*
X137300Y153700D02*
Y160471D01*
X135371Y162400D02*
X137300Y160471D01*
X129200Y158700D02*
Y159799D01*
X131801Y162400D01*
X135371D01*
X131700Y158700D02*
Y160500D01*
X136500Y152800D02*
X141800Y147500D01*
X136500Y152800D02*
Y160140D01*
X135040Y161600D02*
X136500Y160140D01*
X135700Y151600D02*
Y156000D01*
Y151600D02*
X139800Y147500D01*
X134200Y157500D02*
X135700Y156000D01*
X134200Y157500D02*
Y158700D01*
Y151100D02*
X137900Y147400D01*
X134200Y151100D02*
Y154200D01*
X126700Y157440D02*
Y158700D01*
X129200Y157440D02*
Y158700D01*
X126700D02*
Y160100D01*
X132800Y161600D02*
X135040D01*
X135900Y140600D02*
Y147600D01*
X134200Y154200D02*
X134300Y154300D01*
X131700Y160500D02*
X132800Y161600D01*
D26*
X119500Y154100D02*
X121600D01*
X118900Y158700D02*
X121700D01*
D27*
X119500Y154100D02*
D03*
X118900Y158700D02*
D03*
D28*
X131000Y142200D02*
D03*
X134800Y141900D02*
D03*
X140700Y139700D02*
D03*
X144731Y141969D02*
D03*
X125700Y137800D02*
D03*
X130200Y136800D02*
D03*
X127500Y139600D02*
D03*
X123100Y139700D02*
D03*
D29*
X126700Y154200D02*
D03*
X129200D02*
D03*
X124200D02*
D03*
X131700D02*
D03*
X121700D02*
D03*
X134200D02*
D03*
D30*
X121700Y158700D02*
D03*
X124200D02*
D03*
X126700D02*
D03*
X129200D02*
D03*
X131700D02*
D03*
X134200D02*
D03*
M02*
