G04*
G04 #@! TF.GenerationSoftware,Altium Limited,Altium Designer,18.0.7 (293)*
G04*
G04 Layer_Physical_Order=1*
G04 Layer_Color=255*
%FSLAX25Y25*%
%MOIN*%
G70*
G01*
G75*
%ADD12R,0.02559X0.07874*%
%ADD13R,0.02700X0.03000*%
%ADD14R,0.18898X0.18898*%
%ADD15R,0.03543X0.00984*%
%ADD16R,0.00984X0.03543*%
%ADD17R,0.03000X0.02700*%
%ADD24C,0.00500*%
%ADD25C,0.00400*%
%ADD26C,0.01000*%
%ADD27C,0.01575*%
%ADD28C,0.00787*%
D12*
X116100Y185400D02*
D03*
X111100D02*
D03*
X131100D02*
D03*
X126100D02*
D03*
X121100D02*
D03*
X136100D02*
D03*
X141100D02*
D03*
X146100D02*
D03*
X151100D02*
D03*
D13*
X149300Y136900D02*
D03*
X145100D02*
D03*
X116100Y137200D02*
D03*
X111900D02*
D03*
D14*
X130000Y160900D02*
D03*
D15*
X114055Y165821D02*
D03*
Y167790D02*
D03*
Y169758D02*
D03*
Y171727D02*
D03*
Y163853D02*
D03*
Y161884D02*
D03*
Y159916D02*
D03*
X145945Y157947D02*
D03*
Y155979D02*
D03*
Y154010D02*
D03*
Y152042D02*
D03*
Y159916D02*
D03*
Y161884D02*
D03*
Y163853D02*
D03*
X114055Y157947D02*
D03*
Y155979D02*
D03*
Y173695D02*
D03*
X145945Y165821D02*
D03*
Y150073D02*
D03*
Y148105D02*
D03*
X114055Y154010D02*
D03*
Y152042D02*
D03*
Y150073D02*
D03*
Y148105D02*
D03*
X145945Y167790D02*
D03*
Y169758D02*
D03*
Y171727D02*
D03*
Y173695D02*
D03*
D16*
X125079Y144955D02*
D03*
X123110D02*
D03*
X121142D02*
D03*
X119173D02*
D03*
X127047D02*
D03*
X129016D02*
D03*
X130984D02*
D03*
X132953Y176845D02*
D03*
X134921D02*
D03*
X136890D02*
D03*
X138858D02*
D03*
X130984D02*
D03*
X129016D02*
D03*
X127047D02*
D03*
X125079D02*
D03*
X117205Y144955D02*
D03*
X140827Y176845D02*
D03*
X142795D02*
D03*
X132953Y144955D02*
D03*
X134921D02*
D03*
X136890D02*
D03*
X138858D02*
D03*
X140827D02*
D03*
X142795D02*
D03*
X123110Y176845D02*
D03*
X121142D02*
D03*
X119173D02*
D03*
X117205D02*
D03*
D17*
X151700Y147200D02*
D03*
Y143000D02*
D03*
X151600Y161400D02*
D03*
Y157200D02*
D03*
D24*
X123110Y176845D02*
Y178690D01*
X126100Y180400D02*
Y185400D01*
X119173Y176845D02*
X121142D01*
X121100Y180700D02*
Y185400D01*
Y180700D02*
X123110Y178690D01*
X125079Y179379D02*
X126100Y180400D01*
X125079Y176845D02*
Y179379D01*
X138858Y176845D02*
Y178542D01*
X136100Y181300D02*
X138858Y178542D01*
X136100Y181300D02*
Y185400D01*
X134921Y176845D02*
X136890D01*
X132953D02*
X134921D01*
X111100Y179600D02*
Y185400D01*
X134921Y165821D02*
X138858Y169758D01*
X140827Y176845D02*
Y185127D01*
X116100Y180800D02*
Y185400D01*
Y180800D02*
X117205Y179695D01*
Y176845D02*
Y179695D01*
X129016Y176845D02*
X130984D01*
X132953D01*
X145945Y161884D02*
X151116D01*
X145945Y152042D02*
X149742D01*
X151600Y153900D02*
Y157200D01*
X149742Y152042D02*
X151600Y153900D01*
X138400Y141900D02*
X138858Y142358D01*
Y144955D01*
X142795D02*
X146345D01*
X148300Y143000D01*
X151700D01*
X149710Y147200D02*
X151700D01*
X148805Y148105D02*
X149710Y147200D01*
X145945Y148105D02*
X148805D01*
X145945Y157947D02*
X145992Y157900D01*
X151100Y180200D02*
Y185400D01*
X146200Y175300D02*
X151100Y180200D01*
X146200Y173950D02*
Y175300D01*
X145945Y173695D02*
X146200Y173950D01*
X146100Y180800D02*
Y185400D01*
X142795Y177495D02*
X146100Y180800D01*
X142795Y176845D02*
Y177495D01*
X140827Y185127D02*
X141100Y185400D01*
X130984Y185284D02*
X131100Y185400D01*
X114055Y173695D02*
Y176645D01*
X111100Y179600D02*
X114055Y176645D01*
X129016Y161884D02*
X130000Y160900D01*
X114055Y161884D02*
X129016D01*
X114055Y152042D02*
Y154010D01*
Y155979D01*
Y157947D01*
Y159916D01*
Y161884D01*
Y163853D01*
Y165821D01*
Y167790D01*
Y169758D01*
Y171727D01*
X136890Y154010D02*
X142795Y148105D01*
X130000Y160900D02*
X136890Y154010D01*
X142795Y148105D02*
X145945D01*
X136890Y154010D02*
X145945D01*
Y150073D02*
Y152042D01*
X130000Y160900D02*
X134921Y165821D01*
X145945D01*
Y157947D02*
Y159916D01*
Y161884D01*
Y163853D01*
Y165821D01*
Y167790D01*
Y169758D01*
Y171727D01*
X129016Y161884D02*
Y176845D01*
X127047D02*
X129016D01*
X121142Y169758D02*
X125079Y165821D01*
X121142Y169758D02*
Y176845D01*
D25*
X131100Y182400D02*
Y185400D01*
X149458Y169758D02*
X149900Y170200D01*
X145945Y169758D02*
X149458D01*
X149879Y165821D02*
X149900Y165800D01*
X145945Y165821D02*
X149879D01*
X145945Y163853D02*
X147253D01*
X145945Y167790D02*
X147490D01*
X147827Y171727D02*
X150000Y173900D01*
X145945Y171727D02*
X147827D01*
X110200Y164600D02*
X110947Y163853D01*
X114055D01*
X110100Y172200D02*
X110573Y171727D01*
X114055D01*
X131000Y141400D02*
X135400Y137000D01*
X131000Y141400D02*
Y142200D01*
X130984Y142216D02*
Y144955D01*
Y142216D02*
X131000Y142200D01*
X130984Y144955D02*
X131000Y144939D01*
X134921Y142021D02*
Y144955D01*
X110473Y150073D02*
X114055D01*
X121142Y152042D02*
X130000Y160900D01*
X121142Y144955D02*
Y152042D01*
X151116Y161884D02*
X151600Y161400D01*
X127132Y135800D02*
X129016Y137684D01*
X120200Y135800D02*
X127132D01*
X118800Y137200D02*
X120200Y135800D01*
X116100Y137200D02*
X118800D01*
X127500Y137900D02*
Y139600D01*
X126200Y136600D02*
X127500Y137900D01*
X122400Y136600D02*
X126200D01*
X118800Y140200D02*
X122400Y136600D01*
X112400Y140200D02*
X118800D01*
X111900Y139700D02*
X112400Y140200D01*
X111900Y137200D02*
Y139700D01*
X149300Y136900D02*
Y137900D01*
X147500Y139700D02*
X149300Y137900D01*
X140700Y139700D02*
X147500D01*
X135400Y137000D02*
X144000D01*
X143463Y140700D02*
X144731Y141969D01*
X137900Y140700D02*
X143463D01*
X136890Y141710D02*
X137900Y140700D01*
X135153Y139700D02*
X140700D01*
X136890Y141710D02*
Y144955D01*
X132953Y141900D02*
X135153Y139700D01*
X132953Y141900D02*
Y144955D01*
X125079Y138421D02*
X125700Y137800D01*
X129900Y136800D02*
X130200D01*
X125079Y138421D02*
Y144955D01*
X127047Y140053D02*
X127500Y139600D01*
X129016Y137684D02*
Y144955D01*
X123100Y139700D02*
Y144945D01*
X123110Y144955D01*
X129016Y137684D02*
X129900Y136800D01*
X127047Y140053D02*
Y144955D01*
D26*
X128800Y180100D02*
X131100Y182400D01*
D27*
X128800Y180100D02*
D03*
X149900Y165800D02*
D03*
Y170200D02*
D03*
X150000Y173900D02*
D03*
X110200Y164600D02*
D03*
X110100Y172200D02*
D03*
X110473Y150073D02*
D03*
X150600Y152900D02*
D03*
D28*
X131000Y142200D02*
D03*
X134800Y141900D02*
D03*
X138400D02*
D03*
X140700Y139700D02*
D03*
X144731Y141969D02*
D03*
X125700Y137800D02*
D03*
X130200Y136800D02*
D03*
X127500Y139600D02*
D03*
X123100Y139700D02*
D03*
M02*
